# xmcd
#
# Track frame offsets:
# 150
# 17513
# 37692
# 50899
# 61512
# 77751
# 98518
# 120124
# 135939
# 148530
# 162009
# 181689
#
# Disc length: 2595 seconds
#
#
# Revision: 0
# Processed by: cddbd v1.4PL0 Copyright (c) Steve Scherf et al.
# Submitted via: FreeRIP 2.51 
#
DISCID=7b0a210c
DTITLE=The Gilmores - To Our Parents - With Love...
DYEAR=1900
DGENRE=Blues
TTITLE0=In The Garden
TTITLE1=Polka Dots and Moonbeams
TTITLE2=Lost In You
TTITLE3=Up the Lazy River
TTITLE4=Sweet Baby James
TTITLE5=Just the Way You Look Tonight
TTITLE6=When Ever You Come Around
TTITLE7=It's Impossible
TTITLE8=Peg O'  My  Heart
TTITLE9=Here There Everywhere
TTITLE10=Eddie My Love
TTITLE11=Yesterday
EXTD=
EXTT0=
EXTT1=
EXTT2=
EXTT3=
EXTT4=
EXTT5=
EXTT6=
EXTT7=
EXTT8=
EXTT9=
EXTT10=
EXTT11=
PLAYORDER=
